<svg version="1.1" id="Layer_1" xmlns="http://www.w3.org/2000/svg" xmlns:xlink="http://www.w3.org/1999/xlink" x="0px" y="0px"
	 width="100%" viewBox="0 0 1024 1024" enable-background="new 0 0 1024 1024" xml:space="preserve">
<path fill="#000000" opacity="1.000000" stroke="none" 
	d="
M563.041016,575.812683 
	C596.339355,569.771729 629.382385,564.539185 661.521606,555.164307 
	C707.725037,541.687134 748.452332,518.460022 783.785339,485.725494 
	C796.621277,473.833557 808.757019,461.316772 819.496948,447.746582 
	C821.230286,447.850037 821.248596,448.954712 821.359436,449.923981 
	C823.562134,469.176331 824.407532,488.460297 820.810547,507.611389 
	C817.085266,527.445740 804.932312,542.121582 790.327332,555.045044 
	C767.465820,575.274475 740.507812,588.111267 711.967346,598.001343 
	C681.804504,608.453674 650.419983,613.601501 619.162170,619.325256 
	C580.740051,626.360840 541.960083,631.647766 504.287354,642.398193 
	C476.834412,650.232239 451.716125,662.423035 431.079285,682.633484 
	C425.493530,688.103821 420.095673,693.822510 416.670227,701.037537 
	C414.496094,705.616943 414.357880,710.096191 417.648346,714.184082 
	C420.963776,718.303040 425.253937,718.987976 430.251038,717.602478 
	C445.846283,713.278564 460.563263,706.538147 475.804779,701.243164 
	C508.860718,689.759460 542.602295,681.057190 576.985413,674.457397 
	C603.910889,669.289185 630.942993,664.508545 657.534546,657.660522 
	C664.062744,655.979309 670.747375,654.905334 677.096741,653.606018 
	C678.046021,654.959839 677.787964,655.663025 677.163208,656.336182 
	C646.394714,689.488342 610.399414,714.875122 567.390747,729.627563 
	C544.726562,737.401733 521.623962,743.789185 498.583008,750.346436 
	C464.425415,760.067444 430.764221,771.101013 399.461731,788.252258 
	C386.298218,795.464783 373.748718,803.693542 361.902679,812.903076 
	C357.811462,816.083679 354.776398,816.322144 350.512177,813.117310 
	C338.098907,803.788025 331.462555,791.277649 328.616150,776.329407 
	C324.129211,752.765747 329.219482,730.844727 339.409973,709.629700 
	C364.480988,657.435791 406.198486,623.848694 458.936096,602.713867 
	C491.376801,589.713135 525.398743,582.543335 559.696655,576.560120 
	C560.678833,576.388733 561.642517,576.111084 563.041016,575.812683 
z"/>
<path fill="#FF0000" opacity="1.000000" stroke="none" 
	d="
M357.787048,611.802551 
	C319.052094,637.437195 291.660492,671.780457 274.948029,714.646851 
	C266.656982,735.912720 262.224548,757.934326 261.723572,780.859741 
	C261.497650,791.197754 262.145233,801.489990 261.997131,811.807068 
	C261.939514,815.817688 260.941742,819.077820 258.207703,822.224304 
	C248.383621,833.530334 238.857498,845.095093 229.201981,856.547913 
	C225.349030,861.118042 220.361893,862.564392 214.801666,860.807739 
	C209.055435,858.992188 206.871658,853.940186 206.890884,848.619080 
	C207.002808,817.639465 204.698227,786.569885 207.761063,755.696533 
	C213.308792,699.775757 236.437164,651.467041 274.188751,610.159485 
	C298.062347,584.037231 326.543488,563.977173 358.330048,548.514648 
	C384.446594,535.810242 411.746094,526.433472 439.636536,518.470764 
	C462.965302,511.810364 486.585480,506.411987 510.130920,500.663361 
	C544.323181,492.315277 578.802856,484.980316 611.930969,472.768524 
	C659.222046,455.335846 699.889587,428.699463 729.961365,387.422852 
	C746.027222,365.370880 755.551514,340.483978 761.771545,314.165070 
	C762.937256,309.232819 763.939941,304.261993 764.987000,299.450714 
	C767.377197,299.411163 768.321594,300.612366 769.268188,301.769257 
	C780.656555,315.688232 791.999756,329.644379 803.437195,343.522858 
	C808.233154,349.342316 809.214050,355.561218 806.591309,362.646240 
	C795.616699,392.292572 778.349426,417.955627 757.429932,441.406952 
	C717.530029,486.135712 666.837952,512.653015 610.176758,529.290710 
	C572.941895,540.224182 534.825928,547.516846 497.213013,556.891479 
	C458.853546,566.452087 421.075073,577.503906 385.663757,595.471130 
	C376.158081,600.294250 367.014252,605.774109 357.787048,611.802551 
z"/>
<path fill="#000000" opacity="1.000000" stroke="none" 
	d="
M675.745117,348.464294 
	C679.751831,354.582031 677.197205,360.246765 674.849060,365.410980 
	C666.813904,383.082397 654.995056,398.119415 640.889343,411.318298 
	C618.665039,432.113800 592.879211,447.062653 564.170776,456.998108 
	C541.466309,464.855713 517.999146,469.662109 494.493073,474.378876 
	C451.628296,482.980255 408.304810,489.461456 366.316223,502.148224 
	C320.070007,516.121460 279.344025,539.590515 243.990402,572.496521 
	C230.315460,585.224731 217.097488,598.350891 205.811005,613.301758 
	C205.534409,613.668152 205.042419,613.872070 204.381760,614.343933 
	C201.519348,611.234497 202.757980,607.323120 202.353134,603.939514 
	C200.429672,587.864136 199.904327,571.730225 201.993256,555.618347 
	C204.339066,537.524902 214.233643,523.467468 226.633026,510.951843 
	C247.505814,489.883392 272.547180,475.286957 299.952606,464.462402 
	C331.059448,452.175873 363.605591,445.242950 396.248505,438.752106 
	C423.307281,433.371582 450.435608,428.338501 477.547607,423.228455 
	C496.178650,419.716919 514.914490,416.636047 533.002686,410.781189 
	C559.452881,402.219666 583.138977,389.227203 601.010681,367.235321 
	C603.854004,363.736450 606.350647,359.963989 607.902222,355.698578 
	C609.750671,350.617493 609.145020,345.671173 605.547729,341.638794 
	C602.211182,337.898560 597.799072,336.861511 592.789734,338.083618 
	C587.248352,339.435486 582.039246,341.699799 576.862183,343.914215 
	C538.349731,360.387207 497.696442,369.346802 457.055420,378.369720 
	C425.862885,385.294922 394.808014,392.787750 363.878540,400.804626 
	C359.797577,401.862427 355.682617,402.789185 351.583374,403.776672 
	C351.341248,403.390442 351.099121,403.004211 350.856995,402.618011 
	C356.356201,396.750610 361.589661,390.603607 367.409088,385.073151 
	C380.085236,373.026611 393.235779,361.432678 407.906219,351.882080 
	C426.521179,339.763550 446.560913,330.407318 467.529419,322.988342 
	C494.198334,313.552460 521.552979,306.146851 547.881836,295.714569 
	C566.192749,288.459198 584.056641,280.276764 600.330627,269.081787 
	C604.142456,266.459595 606.302490,266.950623 609.071411,270.206543 
	C628.064453,292.539917 647.169861,314.777557 666.224976,337.058197 
	C669.362915,340.727295 672.431152,344.455933 675.745117,348.464294 
z"/>
<path fill="#000000" opacity="1.000000" stroke="none" 
	d="
M423.261536,849.007019 
	C416.266022,846.784607 409.282898,845.913025 402.873322,843.051025 
	C403.157745,839.908203 405.665405,839.102417 407.405396,837.813538 
	C425.062531,824.733398 444.519867,814.940674 464.864014,806.856506 
	C496.322510,794.355652 529.316406,786.731873 561.545715,776.677368 
	C603.497620,763.589661 642.624451,745.240295 675.557739,715.542236 
	C699.518494,693.935181 719.574768,669.185181 733.207947,639.653137 
	C734.346130,637.187744 736.308960,635.941162 738.679626,634.894348 
	C758.224915,626.264404 777.104065,616.457336 794.312622,603.637634 
	C802.626770,597.443848 810.171692,590.420410 817.568420,583.203125 
	C818.692017,582.106812 819.422974,580.356079 821.720703,580.460693 
	C822.989929,583.781799 821.550781,587.024414 820.994019,590.110535 
	C812.129456,639.250244 793.200562,684.181152 763.442688,724.303711 
	C742.768616,752.178711 718.101562,776.086426 689.829834,796.365662 
	C651.713135,823.706665 609.462891,841.097351 563.737793,850.741821 
	C535.363586,856.726685 506.702148,858.653992 477.866333,857.034546 
	C459.625580,856.010010 441.469604,853.521790 423.261536,849.007019 
z"/>
<path fill="#000000" opacity="1.000000" stroke="none" 
	d="
M333.315674,266.266968 
	C412.096985,214.134018 496.769104,196.870361 590.249939,219.885223 
	C582.988708,226.559052 576.095886,231.080978 569.111084,235.490463 
	C543.823975,251.454224 515.891907,261.384949 487.910980,271.242249 
	C461.377869,280.589478 434.675385,289.512024 409.542145,302.411377 
	C372.219025,321.566956 340.587646,347.594269 314.532104,380.461578 
	C304.761414,392.786652 296.626862,406.134338 289.298859,419.998962 
	C288.141602,422.188477 286.652283,423.570160 284.362000,424.579315 
	C254.239502,437.851776 226.639740,454.962494 203.186188,478.321777 
	C202.492874,479.012329 201.898621,479.892242 199.845352,479.772156 
	C204.731567,436.055969 219.537354,396.092529 243.371185,359.365540 
	C267.226105,322.606049 296.855408,291.376190 333.315674,266.266968 
z"/>
<path fill="#000000" opacity="1.000000" stroke="none" 
	d="
M662.286499,205.120667 
	C702.525208,193.103134 742.382874,181.220856 782.245728,169.356461 
	C784.633728,168.645721 787.069946,168.098557 789.473694,167.438766 
	C794.312134,166.110687 798.464417,167.488068 801.679626,171.095779 
	C804.987427,174.807495 805.175964,179.300430 803.410339,183.765396 
	C800.884827,190.152039 796.664185,195.613831 793.266418,201.524643 
	C770.277771,241.516098 747.154358,281.430084 724.084900,321.375122 
	C717.080750,333.503021 705.953430,334.703369 697.109436,323.814331 
	C674.844116,296.400360 651.762878,269.678528 628.945312,242.732239 
	C626.591919,239.953033 624.030884,237.209396 622.914490,233.625412 
	C620.081604,224.531052 624.017395,216.978134 633.711304,213.751495 
	C643.020508,210.652924 652.501282,208.069641 662.286499,205.120667 
z"/>
</svg>